<?xml version="1.0" encoding="UTF-8"?>
<svg id="Layer_1" data-name="Layer 1" xmlns="http://www.w3.org/2000/svg" viewBox="0 0 472.34 445.73">
  <defs>
    <style>
      .cls-1 {
        fill: #ed1f24;
      }

      .cls-1, .cls-2, .cls-3, .cls-4, .cls-5 {
        stroke: #231f20;
        stroke-miterlimit: 10;
      }

      .cls-2 {
        fill: #e8e8e8;
      }

      .cls-3 {
        fill: #6b6b6b;
      }

      .cls-4 {
        fill: #ededed;
      }

      .cls-5 {
        fill: #7b2b2c;
      }
    </style>
  </defs>
  <path class="cls-5" d="m288.52,68.47c-.02.62-.04,1.24-.05,1.86.18,0,.36.01.53.02-.17-.62-.33-1.25-.48-1.88Zm-76.23,210.5c-29.05,2.37-60.64-2.74-84.89-13.36-6.56-1.21-15.08-8.99-22.27-11.92,7.31,18.72,63.55,32.15,83.55,31.09,17.56.37,34.6-3.02,50.36-9.41-7.2-1.09-18.56,4.7-26.75,3.6Zm-138.72-55.46c5.16,8.59,11.27,16.21,18.61,21.35-.03-.25-.06-.51-.09-.76-8.24-5.35-12.62-14.1-18.52-20.59Zm-17.38-39.33c1.5,4.2,3.14,8.73,4.98,13.38-1.01-3.8-1.73-7.67-2.13-11.61-.96-.57-1.91-1.17-2.85-1.77Z"/>
  <path class="cls-3" d="m321.03,226.88c-3.58,6.8-7.73,13.31-12.38,19.44-15.31,20.24-36.02,36.43-59.58,45.96-7.2-1.09-18.56,4.7-26.75,3.6-29.05,2.37-60.64-2.74-84.89-13.36-6.56-1.21-15.08-8.99-22.27-11.92-.39-1.01-.64-2.03-.74-3.07-4.41-1.14-8.47-3.12-12.21-5.76-.03-.25-.06-.51-.09-.76-8.24-5.35-12.62-14.1-18.52-20.59-4.94-8.2-9-17.29-12.4-25.95-1.01-3.8-1.73-7.67-2.13-11.61,68.76,41.86,165.6,24.91,215.45-37.67.33.29.66.58.99.87,10.7-38.06-42.1-52.58-71.67-59.11,15.88-1.75,30.21-4.6,42.14-8.27.25.52.51,1.05.77,1.57,16.36,4.46,31.25,11.12,44.01,19.47,14.25,9.24,26.77,21.47,35.17,35.85.1,1.51.17,3.02.22,4.55,1.2,23.62-4.46,46.51-15.12,66.76Z"/>
  <path class="cls-4" d="m59.04,185.95c-.96-.57-1.91-1.17-2.85-1.77,1.5,4.2,3.14,8.73,4.98,13.38-1.01-3.8-1.73-7.67-2.13-11.61Zm33.05,58.15c-8.24-5.35-12.62-14.1-18.52-20.59,5.16,8.59,11.27,16.21,18.61,21.35-.03-.25-.06-.51-.09-.76ZM235.88,76.12c.11-.29.17-.62.18-.97-.1.33-.16.65-.18.97Zm-23.59,202.85c-29.05,2.37-60.64-2.74-84.89-13.36-6.56-1.21-15.08-8.99-22.27-11.92,7.31,18.72,63.55,32.15,83.55,31.09,17.56.37,34.6-3.02,50.36-9.41-7.2-1.09-18.56,4.7-26.75,3.6Zm88.65-175.94c.52-.16.88-.35.98-.92-.32.3-.65.6-.98.92Z"/>
  <path class="cls-2" d="m386.85,272.81c-.53-17.29-4.11-33.53-10.49-48.83-2.57,1.33-5.28,2.23-8.07,2.64,10.31-4.38,4.26-17.99-4.9-19.58,4.36-10.81-11.03-20.38-20.55-22.94.83,6-5.67,10.31-9.21,16.06-.14-.34-.27-.69-.41-1.04-5.44,4.04-13,7.71-22.22,10.85-3.58,6.8-7.73,13.31-12.38,19.44,4.62,1.89,9.12,4.02,13.56,6.46-17.44,21.04-46.03,28.44-69.44,41.01-1.04-.83-2.29-1.31-3.7-1.51-15.76,6.39-32.8,9.78-50.36,9.41-20,1.06-76.24-12.37-83.55-31.09-5.25-2.15-9.79-1.71-12.35,5.78.17-4.86-.05-9.77-.6-14.61-7.34-5.14-13.45-12.76-18.61-21.35-3.13-3.44-6.67-6.25-11.44-7.58,1.76-.75,3.51-1.52,5.24-2.32-2.65-5.16-4.74-10.53-6.2-16.05-1.84-4.65-3.48-9.18-4.98-13.38.94.6,1.89,1.2,2.85,1.77-.13-1.14-.22-2.28-.29-3.43-3.58-4.28-12.64-5.7-8.22-12.02,2.53,3.58,5.25,7,8.15,10.24-1.07-63.31,67.97-100.01,125.08-103.35,11.99-4.18,49.18,6.99,52.12-1.27.02-.32.08-.64.18-.97,0,.35-.07.68-.18.97-.44,5.29,8.41,9.03,8.87,3.14.39.84.79,1.68,1.2,2.51.25.52.51,1.05.77,1.57,16.36,4.46,31.25,11.12,44.01,19.47,14.25,9.24,26.77,21.47,35.17,35.85,5.67,9.71,9.46,20.41,10.61,31.81,5.32,4.37,10.31,9.14,14.94,14.24,8.1-.69,18.14-5.98,22.96-15.07-1.73-11.43,1.27-45.37-11.22-45.43,1.62-.23,3.21-.54,4.79-.92-11.33-40.02-37.5-74.6-72.34-96.62-1.57,4.94-2.9,10.07-3.98,15.37.73-15.03,1.44-20.06-14.29-25.4-16.4-7.75-34.24-12.92-53.02-15.02-50.85-6.08-103.92,12.81-139.34,49.23-38.18,38.05-55.92,95.23-46.18,148.34,4.91,15.35,7.11,48.9,25.16,51.07-2.16.46-4.29,1.02-6.39,1.67,40.28,76.27,142.99,109.01,219.76,70.72,25.55-17.72,75.17-17.7,90.2-32.67.14.35.27.7.41,1.04,3.54-5.75,10.04-10.06,9.21-16.06,3.15,1.47,6.4,2.64,9.71,3.5.05-1.88.01-3.77-.04-5.65Zm-84.93-170.7c-.1.57-.46.76-.98.92.33-.32.66-.62.98-.92Zm-13.4-33.64c.15.63.31,1.26.48,1.88-.17-.01-.35-.02-.53-.02.01-.62.03-1.24.05-1.86Zm-131.65,248.25c1.85-.02,1.91,1.25,2.14,2.79-.69-.95-1.4-1.88-2.14-2.79Zm154.61-14.23c-2.21,1.27-4.73,2.25-6.73,3.93,1.91-1.95,4.85-3.27,6.93-5.33-.07.46-.14.93-.2,1.4Zm24.73-23.74c-.33-.29-.66-.58-.99-.87.75-.88,1.48-1.77,2.19-2.67-.31,1.19-.71,2.37-1.2,3.54Zm26.2-46.42c-.25.09-.49.19-.74.3.33-.32.66-.62.98-.92-.08.21-.16.41-.24.62Z"/>
  <path class="cls-1" d="m471.78,235.57c-8.8-4.47-79.67,125.96-89.87,120.58-7.84-4.13,23.13-86.75,22.75-86.97-51.15,92.56-288.22,149.22-372.9-25.14C-1.4,173.61,25.31,100.78,23.87,100.63c-138.9,348.38,383.93,497.92,447.91,134.94Z"/>
</svg>