<svg id="visual" viewBox="0 0 960 540" width="960" height="540" xmlns="http://www.w3.org/2000/svg" xmlns:xlink="http://www.w3.org/1999/xlink" version="1.1"><path d="M236 540L350.5 531.8C465 523.7 694 507.3 779 491C864 474.7 805 458.3 707 442C609 425.7 472 409.3 472.8 393C473.7 376.7 612.3 360.3 665.5 344C718.7 327.7 686.3 311.3 621.2 294.8C556 278.3 458 261.7 394 245.2C330 228.7 300 212.3 387.7 196C475.3 179.7 680.7 163.3 772 147C863.3 130.7 840.7 114.3 777 98C713.3 81.7 608.7 65.3 552.7 49C496.7 32.7 489.3 16.3 485.7 8.2L482 0L960 0L960 8.2C960 16.3 960 32.7 960 49C960 65.3 960 81.7 960 98C960 114.3 960 130.7 960 147C960 163.3 960 179.7 960 196C960 212.3 960 228.7 960 245.2C960 261.7 960 278.3 960 294.8C960 311.3 960 327.7 960 344C960 360.3 960 376.7 960 393C960 409.3 960 425.7 960 442C960 458.3 960 474.7 960 491C960 507.3 960 523.7 960 531.8L960 540Z" fill="#d6b1fa" stroke-linecap="round" stroke-linejoin="miter"></path></svg>