<svg id="visual" viewBox="0 0 960 540" width="960" height="540" xmlns="http://www.w3.org/2000/svg" xmlns:xlink="http://www.w3.org/1999/xlink" version="1.1"><rect x="0" y="0" width="960" height="540" fill="#ffffff"></rect><path d="M0 300L11.5 320.8C23 341.7 46 383.3 68.8 397.8C91.7 412.3 114.3 399.7 137.2 387.8C160 376 183 365 205.8 339.8C228.7 314.7 251.3 275.3 274.2 280.8C297 286.3 320 336.7 342.8 348.5C365.7 360.3 388.3 333.7 411.2 323.5C434 313.3 457 319.7 480 346C503 372.3 526 418.7 548.8 420.5C571.7 422.3 594.3 379.7 617.2 361.5C640 343.3 663 349.7 685.8 330.5C708.7 311.3 731.3 266.7 754.2 259.8C777 253 800 284 822.8 323.3C845.7 362.7 868.3 410.3 891.2 398.8C914 387.3 937 316.7 948.5 281.3L960 246L960 541L948.5 541C937 541 914 541 891.2 541C868.3 541 845.7 541 822.8 541C800 541 777 541 754.2 541C731.3 541 708.7 541 685.8 541C663 541 640 541 617.2 541C594.3 541 571.7 541 548.8 541C526 541 503 541 480 541C457 541 434 541 411.2 541C388.3 541 365.7 541 342.8 541C320 541 297 541 274.2 541C251.3 541 228.7 541 205.8 541C183 541 160 541 137.2 541C114.3 541 91.7 541 68.8 541C46 541 23 541 11.5 541L0 541Z" fill="#ddafff" stroke-linecap="round" stroke-linejoin="miter"></path></svg>