<svg id="visual" viewBox="0 0 960 540" width="960" height="540" xmlns="http://www.w3.org/2000/svg" xmlns:xlink="http://www.w3.org/1999/xlink" version="1.1"><path d="M0 407L13.3 386.7C26.7 366.3 53.3 325.7 80 294.5C106.7 263.3 133.3 241.7 160 245.5C186.7 249.3 213.3 278.7 240 306.3C266.7 334 293.3 360 320 341.7C346.7 323.3 373.3 260.7 400 283C426.7 305.3 453.3 412.7 480 432.7C506.7 452.7 533.3 385.3 560 332C586.7 278.7 613.3 239.3 640 260.3C666.7 281.3 693.3 362.7 720 391.7C746.7 420.7 773.3 397.3 800 390.2C826.7 383 853.3 392 880 356.8C906.7 321.7 933.3 242.3 946.7 202.7L960 163L960 541L946.7 541C933.3 541 906.7 541 880 541C853.3 541 826.7 541 800 541C773.3 541 746.7 541 720 541C693.3 541 666.7 541 640 541C613.3 541 586.7 541 560 541C533.3 541 506.7 541 480 541C453.3 541 426.7 541 400 541C373.3 541 346.7 541 320 541C293.3 541 266.7 541 240 541C213.3 541 186.7 541 160 541C133.3 541 106.7 541 80 541C53.3 541 26.7 541 13.3 541L0 541Z" fill="#d6b1fa" stroke-linecap="round" stroke-linejoin="miter"></path></svg>